HIERARCHY
ROOT joint_Root
{
	OFFSET 0.0 0.0 0.0
	CHANNELS 6 Xposition Yposition Zposition Zrotation Xrotation Yrotation 
	JOINT Hips
	{
		OFFSET 4.5925 91.4895 -427.239
		CHANNELS 6 Xposition Yposition Zposition Zrotation Xrotation Yrotation 
		JOINT Spine
		{
			OFFSET 15.7357 0.0 0.0
			CHANNELS 6 Xposition Yposition Zposition Zrotation Xrotation Yrotation 
			JOINT Chest
			{
				OFFSET 8.98455 -0.406207 0.0
				CHANNELS 6 Xposition Yposition Zposition Zrotation Xrotation Yrotation 
				JOINT Neck
				{
					OFFSET 16.3773 0.0 0.0
					CHANNELS 6 Xposition Yposition Zposition Zrotation Xrotation Yrotation 
					JOINT Head
					{
						OFFSET 6.45672 0.0 0.0
						CHANNELS 6 Xposition Yposition Zposition Zrotation Xrotation Yrotation 
						End Site
						{
							OFFSET 0.0 0.0 0.0
						}
					}
				}
				JOINT Shoulder_L
				{
					OFFSET 12.9942 -0.242716 4.98039
					CHANNELS 6 Xposition Yposition Zposition Zrotation Xrotation Yrotation 
					JOINT UpperArm_L
					{
						OFFSET 5.34809 0.0 0.0
						CHANNELS 6 Xposition Yposition Zposition Zrotation Xrotation Yrotation 
						JOINT LowerArm_L
						{
							OFFSET 24.3286 1.87007e-05 0.0
							CHANNELS 6 Xposition Yposition Zposition Zrotation Xrotation Yrotation 
							JOINT Hand_L
							{
								OFFSET 22.2916 0.0 0.0
								CHANNELS 6 Xposition Yposition Zposition Zrotation Xrotation Yrotation 
								End Site
								{
									OFFSET 0.0 0.0 0.0
								}
							}
						}
					}
				}
				JOINT Shoulder_R
				{
					OFFSET 12.9945 -0.242716 -4.98039
					CHANNELS 6 Xposition Yposition Zposition Zrotation Xrotation Yrotation 
					JOINT UpperArm_R
					{
						OFFSET -5.34813 0.0 0.0
						CHANNELS 6 Xposition Yposition Zposition Zrotation Xrotation Yrotation 
						JOINT LowerArm_R
						{
							OFFSET -24.3289 0.000322201 0.0
							CHANNELS 6 Xposition Yposition Zposition Zrotation Xrotation Yrotation 
							JOINT Hand_R
							{
								OFFSET -22.2915 -0.000108084 0.0
								CHANNELS 6 Xposition Yposition Zposition Zrotation Xrotation Yrotation 
								End Site
								{
									OFFSET 0.0 0.0 0.0
								}
							}
						}
					}
				}
			}
		}
		JOINT UpperLeg_L
		{
			OFFSET -2.19248 -6.46944 0.0
			CHANNELS 6 Xposition Yposition Zposition Zrotation Xrotation Yrotation 
			JOINT LowerLeg_L
			{
				OFFSET 39.0811 0.0 -1.23785e-05
				CHANNELS 6 Xposition Yposition Zposition Zrotation Xrotation Yrotation 
				JOINT Foot_L
				{
					OFFSET 40.9854 0.0 -1.26872e-05
					CHANNELS 6 Xposition Yposition Zposition Zrotation Xrotation Yrotation 
					JOINT Toes_L
					{
						OFFSET 11.7543 0.0 0.0
						CHANNELS 6 Xposition Yposition Zposition Zrotation Xrotation Yrotation 
						End Site
						{
							OFFSET 0.0 0.0 0.0
						}
					}
				}
			}
		}
		JOINT UpperLeg_R
		{
			OFFSET -2.19251 6.46944 0.0
			CHANNELS 6 Xposition Yposition Zposition Zrotation Xrotation Yrotation 
			JOINT LowerLeg_R
			{
				OFFSET -39.0811 -0.00228153 -0.0401928
				CHANNELS 6 Xposition Yposition Zposition Zrotation Xrotation Yrotation 
				JOINT Foot_R
				{
					OFFSET -40.9854 0.0 0.0
					CHANNELS 6 Xposition Yposition Zposition Zrotation Xrotation Yrotation 
					JOINT Toes_R
					{
						OFFSET -11.7543 0.0 0.0
						CHANNELS 6 Xposition Yposition Zposition Zrotation Xrotation Yrotation 
						End Site
						{
							OFFSET 0.0 0.0 0.0
						}
					}
				}
			}
		}
	}
}
MOTION
Frames:	4
Frame Time:	0.0333333
0.000000 0.000000 0.000000 0.000000 0.000000 -0.000000 114.508000 88.640400 174.016000 -82.551300 40.797200 175.246000 15.735700 0.000005 -0.000001 119.430000 82.791100 -119.785000 8.984550 -0.406207 -0.000000 4.843010 7.079770 -1.010290 16.377300 -0.000001 -0.000001 0.150533 2.922830 0.881879 6.456720 -0.000001 -0.000000 -6.444000 2.677550 -1.476340 12.994200 -0.242716 4.980390 -88.641100 -3.354650 -67.933900 5.348090 -0.000007 -0.000001 -63.706100 57.782600 22.801900 24.328600 0.000019 0.000005 4.611070 1.479000 -72.267000 22.291600 -0.000001 0.000005 0.328359 5.553470 -8.867430 12.994500 -0.242716 -4.980390 89.880500 0.830840 -81.815800 -5.348130 -0.000001 -0.000004 -57.241700 30.096800 -55.628000 -24.328900 0.000322 -0.000009 -12.308000 7.309670 -120.252000 -22.291500 -0.000108 -0.000004 16.927600 5.571000 -9.737340 -2.192480 -6.469440 -0.000000 -179.190000 0.471845 -25.035100 39.081100 -0.000007 -0.000012 0.081263 -0.021801 74.977800 40.985400 -0.000006 -0.000013 11.690000 -5.148270 -61.837900 11.754300 -0.000000 0.000003 -0.007206 -0.081434 -19.892100 -2.192510 6.469440 -0.000001 171.860000 19.831200 174.494000 -39.081100 -0.002282 -0.040193 -0.060217 0.095098 33.736700 -40.985400 0.000008 0.000006 -5.541700 7.074030 -66.792300 -11.754300 -0.000006 -0.000006 -2.727300 -3.045460 -22.013700
0.000000 0.000000 0.000000 0.000000 0.000000 -0.000000 116.398000 90.182200 171.276000 -83.760800 38.817000 174.038000 15.735700 0.000005 -0.000001 127.387000 82.621800 -128.403000 8.984550 -0.406207 -0.000000 4.080730 8.979570 -2.352540 16.377300 -0.000001 -0.000001 -0.552998 2.145440 0.898467 6.456720 -0.000001 -0.000000 -7.299410 0.657020 -0.485922 12.994200 -0.242716 4.980390 -87.220200 -6.781390 -67.647800 5.348090 -0.000007 -0.000001 -65.933300 57.122100 30.296000 24.328600 0.000019 0.000005 4.386250 1.054940 -76.500200 22.291600 -0.000001 0.000005 -0.110960 5.543500 -8.402730 12.994500 -0.242716 -4.980390 90.242000 -1.679450 -81.799900 -5.348130 -0.000001 -0.000004 -55.477700 28.501800 -61.022300 -24.328900 0.000322 -0.000009 -10.966400 7.295130 -123.238000 -22.291500 -0.000108 -0.000004 16.168200 5.553810 -8.884080 -2.192480 -6.469440 -0.000000 178.211000 -1.251780 -29.204700 39.081100 -0.000007 -0.000012 0.053033 -0.022309 67.180000 40.985400 -0.000006 -0.000013 9.123970 -2.949760 -65.422700 11.754300 -0.000000 0.000003 -0.006412 -0.074545 -19.611000 -2.192510 6.469440 -0.000001 170.199000 24.281100 177.489000 -39.081100 -0.002282 -0.040193 -0.041301 0.082324 28.450400 -40.985400 0.000008 0.000006 -5.223420 9.736210 -60.600500 -11.754300 -0.000006 -0.000006 -0.072485 -0.227805 -23.982800
0.000000 0.000000 0.000000 0.000000 0.000000 -0.000000 118.337000 91.014800 168.640000 -84.210700 36.415300 172.758000 15.735700 0.000005 -0.000001 131.168000 82.428700 -132.526000 8.984550 -0.406207 -0.000000 3.802160 10.001800 -3.051960 16.377300 -0.000001 -0.000001 -1.269220 1.820340 0.467906 6.456720 -0.000001 -0.000000 -8.276370 -0.949455 -0.194148 12.994200 -0.242716 4.980390 -85.855800 -10.021100 -67.393300 5.348090 -0.000007 -0.000001 -67.434100 53.853800 34.245500 24.328600 0.000019 0.000005 6.160590 1.273040 -78.366600 22.291600 -0.000001 0.000005 -0.400263 5.534600 -7.998130 12.994500 -0.242716 -4.980390 90.482900 -3.402930 -81.916800 -5.348130 -0.000001 -0.000004 -51.946800 27.725700 -65.288200 -24.328900 0.000322 -0.000009 -10.832800 7.355120 -123.784000 -22.291500 -0.000108 -0.000004 15.837900 5.540260 -8.254690 -2.192480 -6.469440 -0.000000 176.076000 -4.322360 -31.808200 39.081100 -0.000007 -0.000012 0.025476 -0.016513 57.043200 40.985400 -0.000006 -0.000013 6.634670 -1.466040 -68.056400 11.754300 -0.000000 0.000003 -0.006582 -0.076046 -19.672200 -2.192510 6.469440 -0.000001 168.606000 30.374100 -179.594000 -39.081100 -0.002282 -0.040193 -0.016470 0.042175 25.128700 -40.985400 0.000008 0.000006 -4.043410 14.003300 -55.789100 -11.754300 -0.000006 -0.000006 -0.041199 -0.264853 -27.456200
0.000000 0.000000 0.000000 0.000000 0.000000 -0.000000 120.255000 90.780200 166.071000 -84.335400 34.152400 171.796000 15.735700 0.000005 -0.000001 132.231000 82.231500 -133.703000 8.984550 -0.406207 -0.000000 3.929650 10.477800 -3.307290 16.377300 -0.000001 -0.000001 -2.033050 1.515400 -0.118765 6.456720 -0.000001 -0.000000 -9.068390 -1.678690 -0.607383 12.994200 -0.242716 4.980390 -84.849600 -12.489700 -67.374300 5.348090 -0.000007 -0.000001 -68.257300 48.636700 35.894900 24.328600 0.000019 0.000005 7.552750 1.444450 -79.235600 22.291600 -0.000001 0.000005 -0.772912 5.520760 -7.397640 12.994500 -0.242716 -4.980390 90.661000 -4.835260 -82.205100 -5.348130 -0.000001 -0.000004 -48.112000 28.415200 -67.841600 -24.328900 0.000322 -0.000009 -11.720800 7.438720 -121.968000 -22.291500 -0.000108 -0.000004 15.742100 5.530480 -7.814940 -2.192480 -6.469440 -0.000000 173.461000 -8.507520 -33.601300 39.081100 -0.000007 -0.000012 0.007531 -0.007134 46.538200 40.985400 -0.000006 -0.000013 4.524460 -1.690810 -69.863800 11.754300 -0.000000 0.000003 -0.007109 -0.080608 -19.858400 -2.192510 6.469440 -0.000001 167.730000 31.603500 -178.160000 -39.081100 -0.002282 -0.040193 -0.010011 0.027860 25.555000 -40.985400 0.000008 0.000006 -3.907250 15.087700 -54.298000 -11.754300 -0.000006 -0.000006 -0.061980 -0.338158 -30.545500
